<svg width="28" height="28" viewBox="-4 -4 28 28" id="act_com_attach" x="290" y="255" xmlns="http://www.w3.org/2000/svg"><path d="M7.076 18.334c-.975 0-1.95-.37-2.692-1.113a3.81 3.81 0 010-5.382l6.298-6.296c.826-.827 2.268-.827 3.094 0 .414.413.641.962.641 1.546a2.17 2.17 0 01-.641 1.547L8.05 14.36a.569.569 0 11-.804-.804l5.726-5.724a1.047 1.047 0 000-1.485 1.077 1.077 0 00-1.487 0l-6.298 6.295a2.673 2.673 0 000 3.776 2.675 2.675 0 003.777 0l6.298-6.296a4.26 4.26 0 001.256-3.033 4.26 4.26 0 00-1.256-3.032 4.295 4.295 0 00-6.067 0L3.47 9.781a.568.568 0 11-.803-.804l5.725-5.723a5.433 5.433 0 017.674 0 5.384 5.384 0 011.59 3.835 5.39 5.39 0 01-1.59 3.837L9.768 17.22a3.794 3.794 0 01-2.692 1.113" fill="#303038" stroke="#303038" stroke-width=".2" opacity=".7"/></svg>